M48
; DRILL file KiCad 10.0.1 date 2026-05-12T17:04:24
; FORMAT={-:-/ absolute / metric / decimal}
; #@! TF.CreationDate,2026-05-12T17:04:24+10:00
; #@! TF.GenerationSoftware,Kicad,Pcbnew,10.0.1
; #@! TF.FileFunction,Plated,1,2,PTH
FMAT,2
METRIC
; #@! TA.AperFunction,Plated,PTH,ViaDrill
T1C0.300
; #@! TA.AperFunction,Plated,PTH,ComponentDrill
T2C0.600
; #@! TA.AperFunction,Plated,PTH,ComponentDrill
T3C0.800
%
G90
G05
T1
X122.5Y-101.5
X123.5Y-103.0
X124.5Y-100.5
X124.5Y-102.5
X124.5Y-105.1
X126.174Y-103.174
X126.4Y-103.975
X126.5Y-106.5
X130.9Y-97.0
X131.301Y-100.1
X131.5Y-101.5
X132.5Y-96.5
X132.5Y-105.5
X133.0Y-99.5
X133.0Y-102.5
X133.5Y-93.0
X133.5Y-93.875
X133.5Y-101.5
X137.0Y-97.5
X138.5Y-108.5
X140.0Y-96.0
X143.5Y-105.5
X146.5Y-106.425
X147.0Y-103.0
X149.5Y-112.5
X151.0Y-97.0
X151.0Y-104.0
X151.0Y-105.5
X152.0Y-107.0
X152.5Y-111.5
X152.65Y-108.5
X152.776Y-112.624
X154.0Y-106.0
X154.1Y-98.0
X154.5Y-107.0
X155.0Y-101.5
X155.115Y-111.102
X156.0Y-93.0
X156.0Y-95.5
X156.0Y-115.0
X157.0Y-102.5
X157.446Y-107.554
X157.5Y-112.5
X159.5Y-102.0
X159.5Y-107.0
T3
X123.525Y-95.025
X123.525Y-97.025
T2
G00X149.18Y-110.32
M15
G01X149.18Y-111.42
M16
G05
G00X149.18Y-114.75
M15
G01X149.18Y-115.35
M16
G05
G00X157.82Y-110.32
M15
G01X157.82Y-111.42
M16
G05
G00X157.82Y-114.75
M15
G01X157.82Y-115.35
M16
G05
M30
