%TF.GenerationSoftware,KiCad,Pcbnew,10.0.1*%
%TF.CreationDate,2026-05-12T17:04:27+10:00*%
%TF.ProjectId,Studytotem,53747564-7974-46f7-9465-6d2e6b696361,rev?*%
%TF.SameCoordinates,Original*%
%TF.FileFunction,Soldermask,Top*%
%TF.FilePolarity,Negative*%
%FSLAX46Y46*%
G04 Gerber Fmt 4.6, Leading zero omitted, Abs format (unit mm)*
G04 Created by KiCad (PCBNEW 10.0.1) date 2026-05-12 17:04:27*
%MOMM*%
%LPD*%
G01*
G04 APERTURE LIST*
G04 Aperture macros list*
%AMRoundRect*
0 Rectangle with rounded corners*
0 $1 Rounding radius*
0 $2 $3 $4 $5 $6 $7 $8 $9 X,Y pos of 4 corners*
0 Add a 4 corners polygon primitive as box body*
4,1,4,$2,$3,$4,$5,$6,$7,$8,$9,$2,$3,0*
0 Add four circle primitives for the rounded corners*
1,1,$1+$1,$2,$3*
1,1,$1+$1,$4,$5*
1,1,$1+$1,$6,$7*
1,1,$1+$1,$8,$9*
0 Add four rect primitives between the rounded corners*
20,1,$1+$1,$2,$3,$4,$5,0*
20,1,$1+$1,$4,$5,$6,$7,0*
20,1,$1+$1,$6,$7,$8,$9,0*
20,1,$1+$1,$8,$9,$2,$3,0*%
%AMOutline5P*
0 Free polygon, 5 corners , with rotation*
0 The origin of the aperture is its center*
0 number of corners: always 5*
0 $1 to $10 corner X, Y*
0 $11 Rotation angle, in degrees counterclockwise*
0 create outline with 5 corners*
4,1,5,$1,$2,$3,$4,$5,$6,$7,$8,$9,$10,$1,$2,$11*%
%AMOutline6P*
0 Free polygon, 6 corners , with rotation*
0 The origin of the aperture is its center*
0 number of corners: always 6*
0 $1 to $12 corner X, Y*
0 $13 Rotation angle, in degrees counterclockwise*
0 create outline with 6 corners*
4,1,6,$1,$2,$3,$4,$5,$6,$7,$8,$9,$10,$11,$12,$1,$2,$13*%
%AMOutline7P*
0 Free polygon, 7 corners , with rotation*
0 The origin of the aperture is its center*
0 number of corners: always 7*
0 $1 to $14 corner X, Y*
0 $15 Rotation angle, in degrees counterclockwise*
0 create outline with 7 corners*
4,1,7,$1,$2,$3,$4,$5,$6,$7,$8,$9,$10,$11,$12,$13,$14,$1,$2,$15*%
%AMOutline8P*
0 Free polygon, 8 corners , with rotation*
0 The origin of the aperture is its center*
0 number of corners: always 8*
0 $1 to $16 corner X, Y*
0 $17 Rotation angle, in degrees counterclockwise*
0 create outline with 8 corners*
4,1,8,$1,$2,$3,$4,$5,$6,$7,$8,$9,$10,$11,$12,$13,$14,$15,$16,$1,$2,$17*%
G04 Aperture macros list end*
%ADD10RoundRect,0.200000X-0.200000X-0.800000X0.200000X-0.800000X0.200000X0.800000X-0.200000X0.800000X0*%
%ADD11RoundRect,0.135000X-0.135000X-0.185000X0.135000X-0.185000X0.135000X0.185000X-0.135000X0.185000X0*%
%ADD12C,0.650000*%
%ADD13RoundRect,0.150000X-0.150000X-0.575000X0.150000X-0.575000X0.150000X0.575000X-0.150000X0.575000X0*%
%ADD14RoundRect,0.075000X-0.075000X-0.650000X0.075000X-0.650000X0.075000X0.650000X-0.075000X0.650000X0*%
%ADD15O,1.000000X2.100000*%
%ADD16O,1.000000X1.600000*%
%ADD17RoundRect,0.075000X-0.075000X0.125000X-0.075000X-0.125000X0.075000X-0.125000X0.075000X0.125000X0*%
%ADD18RoundRect,0.062500X-0.287500X-0.062500X0.287500X-0.062500X0.287500X0.062500X-0.287500X0.062500X0*%
%ADD19R,0.900000X1.500000*%
%ADD20R,0.800000X0.400000*%
%ADD21R,0.400000X0.800000*%
%ADD22Outline5P,-0.600000X0.204000X-0.204000X0.600000X0.600000X0.600000X0.600000X-0.600000X-0.600000X-0.600000X0.000000*%
%ADD23R,1.200000X1.200000*%
%ADD24R,0.800000X0.800000*%
%ADD25RoundRect,0.075000X0.075000X-0.350000X0.075000X0.350000X-0.075000X0.350000X-0.075000X-0.350000X0*%
%ADD26RoundRect,0.075000X0.350000X0.075000X-0.350000X0.075000X-0.350000X-0.075000X0.350000X-0.075000X0*%
%ADD27RoundRect,0.090000X0.660000X0.360000X-0.660000X0.360000X-0.660000X-0.360000X0.660000X-0.360000X0*%
%ADD28RoundRect,0.075000X0.075000X-0.125000X0.075000X0.125000X-0.075000X0.125000X-0.075000X-0.125000X0*%
%ADD29R,1.350000X1.350000*%
%ADD30C,1.350000*%
G04 APERTURE END LIST*
D10*
%TO.C,SW2*%
X160865000Y-106675000D03*
X165065000Y-106675000D03*
%TD*%
%TO.C,SW1*%
X160865000Y-102225000D03*
X165065000Y-102225000D03*
%TD*%
D11*
%TO.C,R4*%
X160635000Y-113875000D03*
X161655000Y-113875000D03*
%TD*%
%TO.C,R3*%
X160635000Y-111885000D03*
X161655000Y-111885000D03*
%TD*%
%TO.C,R2*%
X160635000Y-109895000D03*
X161655000Y-109895000D03*
%TD*%
D12*
%TO.C,J2*%
X150610000Y-111400000D03*
X156390000Y-111400000D03*
D13*
X150250000Y-109955000D03*
X151050000Y-109955000D03*
D14*
X152250000Y-109955000D03*
X153250000Y-109955000D03*
X153750000Y-109955000D03*
X154750000Y-109955000D03*
D13*
X155950000Y-109955000D03*
X156750000Y-109955000D03*
X156750000Y-109955000D03*
X155950000Y-109955000D03*
D14*
X155250000Y-109955000D03*
X154250000Y-109955000D03*
X152750000Y-109955000D03*
X151750000Y-109955000D03*
D13*
X151050000Y-109955000D03*
X150250000Y-109955000D03*
D15*
X149180000Y-110870000D03*
D16*
X149180000Y-115050000D03*
D15*
X157820000Y-110870000D03*
D16*
X157820000Y-115050000D03*
%TD*%
D17*
%TO.C,C1*%
X131500000Y-93975000D03*
X131500000Y-94475000D03*
%TD*%
D18*
%TO.C,U3*%
X151500000Y-93750000D03*
X151500000Y-94250000D03*
X151500000Y-94750000D03*
X151500000Y-95250000D03*
X153500000Y-95250000D03*
X153500000Y-94750000D03*
X153500000Y-94250000D03*
X153500000Y-93750000D03*
D19*
X152500000Y-94500000D03*
%TD*%
D20*
%TO.C,U1*%
X135225000Y-94375000D03*
X135225000Y-95225000D03*
X135225000Y-96075000D03*
X135225000Y-96925000D03*
X135225000Y-97775000D03*
X135225000Y-98625000D03*
X135225000Y-99475000D03*
X135225000Y-100325000D03*
X135225000Y-101175000D03*
X135225000Y-102025000D03*
X135225000Y-102875000D03*
X135225000Y-103725000D03*
X135225000Y-104575000D03*
X135225000Y-105425000D03*
X135225000Y-106275000D03*
D21*
X136275000Y-107325000D03*
X137125000Y-107325000D03*
X137975000Y-107325000D03*
X138825000Y-107325000D03*
X139675000Y-107325000D03*
X140525000Y-107325000D03*
X141375000Y-107325000D03*
X142225000Y-107325000D03*
X143075000Y-107325000D03*
X143925000Y-107325000D03*
X144775000Y-107325000D03*
X145625000Y-107325000D03*
X146475000Y-107325000D03*
X147325000Y-107325000D03*
X148175000Y-107325000D03*
D20*
X149225000Y-106275000D03*
X149225000Y-105425000D03*
X149225000Y-104575000D03*
X149225000Y-103725000D03*
X149225000Y-102875000D03*
X149225000Y-102025000D03*
X149225000Y-101175000D03*
X149225000Y-100325000D03*
X149225000Y-99475000D03*
X149225000Y-98625000D03*
X149225000Y-97775000D03*
X149225000Y-96925000D03*
X149225000Y-96075000D03*
X149225000Y-95225000D03*
X149225000Y-94375000D03*
D21*
X148175000Y-93325000D03*
X147325000Y-93325000D03*
X146475000Y-93325000D03*
X145625000Y-93325000D03*
X144775000Y-93325000D03*
X143925000Y-93325000D03*
X143075000Y-93325000D03*
X142225000Y-93325000D03*
X141375000Y-93325000D03*
X140525000Y-93325000D03*
X139675000Y-93325000D03*
X138825000Y-93325000D03*
X137975000Y-93325000D03*
X137125000Y-93325000D03*
X136275000Y-93325000D03*
D22*
X140575000Y-98675000D03*
D23*
X140575000Y-100325000D03*
X140575000Y-101975000D03*
X142225000Y-98675000D03*
X142225000Y-100325000D03*
X142225000Y-101975000D03*
X143875000Y-98675000D03*
X143875000Y-100325000D03*
X143875000Y-101975000D03*
D24*
X135225000Y-93325000D03*
X135225000Y-107325000D03*
X149225000Y-107325000D03*
X149225000Y-93325000D03*
%TD*%
D17*
%TO.C,R1*%
X131500000Y-111475000D03*
X131500000Y-111975000D03*
%TD*%
D25*
%TO.C,U2*%
X127000000Y-102900000D03*
X127500000Y-102900000D03*
X128000000Y-102900000D03*
X128500000Y-102900000D03*
X129000000Y-102900000D03*
X129500000Y-102900000D03*
D26*
X130200000Y-102200000D03*
X130200000Y-101700000D03*
X130200000Y-101200000D03*
X130200000Y-100700000D03*
X130200000Y-100200000D03*
X130200000Y-99700000D03*
D25*
X129500000Y-99000000D03*
X129000000Y-99000000D03*
X128500000Y-99000000D03*
X128000000Y-99000000D03*
X127500000Y-99000000D03*
X127000000Y-99000000D03*
D26*
X126300000Y-99700000D03*
X126300000Y-100200000D03*
X126300000Y-100700000D03*
X126300000Y-101200000D03*
X126300000Y-101700000D03*
X126300000Y-102200000D03*
%TD*%
D27*
%TO.C,D1*%
X144950000Y-114150000D03*
X144950000Y-110850000D03*
X140050000Y-110850000D03*
X140050000Y-114150000D03*
%TD*%
D28*
%TO.C,C2*%
X126000000Y-112000000D03*
X126000000Y-111500000D03*
%TD*%
D29*
%TO.C,J1*%
X123525000Y-95025000D03*
D30*
X123525000Y-97025000D03*
%TD*%
M02*
