M48
; DRILL file KiCad 10.0.1 date 2026-05-08T11:42:40
; FORMAT={-:-/ absolute / metric / decimal}
; #@! TF.CreationDate,2026-05-08T11:42:40+10:00
; #@! TF.GenerationSoftware,Kicad,Pcbnew,10.0.1
; #@! TF.FileFunction,Plated,1,2,PTH
FMAT,2
METRIC
; #@! TA.AperFunction,Plated,PTH,ViaDrill
T1C0.300
%
G90
G05
T1
X122.5Y-101.5
X123.5Y-103.0
X124.5Y-100.5
X124.5Y-102.5
X124.5Y-105.1
X126.174Y-103.174
X126.4Y-103.975
X126.5Y-106.5
X130.9Y-97.0
X131.301Y-100.1
X131.5Y-101.5
X132.5Y-96.5
X132.5Y-105.5
X133.0Y-99.5
X133.0Y-102.5
X133.5Y-93.875
X133.5Y-101.5
X138.5Y-108.5
X140.0Y-96.0
X156.0Y-95.5
M30
