%TF.GenerationSoftware,KiCad,Pcbnew,10.0.1*%
%TF.CreationDate,2026-05-08T11:42:37+10:00*%
%TF.ProjectId,Studytotem,53747564-7974-46f7-9465-6d2e6b696361,rev?*%
%TF.SameCoordinates,Original*%
%TF.FileFunction,Legend,Top*%
%TF.FilePolarity,Positive*%
%FSLAX46Y46*%
G04 Gerber Fmt 4.6, Leading zero omitted, Abs format (unit mm)*
G04 Created by KiCad (PCBNEW 10.0.1) date 2026-05-08 11:42:37*
%MOMM*%
%LPD*%
G01*
G04 APERTURE LIST*
%ADD10C,0.150000*%
%ADD11C,0.120000*%
G04 APERTURE END LIST*
D10*
X132859580Y-94391666D02*
X132907200Y-94439285D01*
X132907200Y-94439285D02*
X132954819Y-94582142D01*
X132954819Y-94582142D02*
X132954819Y-94677380D01*
X132954819Y-94677380D02*
X132907200Y-94820237D01*
X132907200Y-94820237D02*
X132811961Y-94915475D01*
X132811961Y-94915475D02*
X132716723Y-94963094D01*
X132716723Y-94963094D02*
X132526247Y-95010713D01*
X132526247Y-95010713D02*
X132383390Y-95010713D01*
X132383390Y-95010713D02*
X132192914Y-94963094D01*
X132192914Y-94963094D02*
X132097676Y-94915475D01*
X132097676Y-94915475D02*
X132002438Y-94820237D01*
X132002438Y-94820237D02*
X131954819Y-94677380D01*
X131954819Y-94677380D02*
X131954819Y-94582142D01*
X131954819Y-94582142D02*
X132002438Y-94439285D01*
X132002438Y-94439285D02*
X132050057Y-94391666D01*
X132954819Y-93439285D02*
X132954819Y-94010713D01*
X132954819Y-93724999D02*
X131954819Y-93724999D01*
X131954819Y-93724999D02*
X132097676Y-93820237D01*
X132097676Y-93820237D02*
X132192914Y-93915475D01*
X132192914Y-93915475D02*
X132240533Y-94010713D01*
X125359580Y-111916666D02*
X125407200Y-111964285D01*
X125407200Y-111964285D02*
X125454819Y-112107142D01*
X125454819Y-112107142D02*
X125454819Y-112202380D01*
X125454819Y-112202380D02*
X125407200Y-112345237D01*
X125407200Y-112345237D02*
X125311961Y-112440475D01*
X125311961Y-112440475D02*
X125216723Y-112488094D01*
X125216723Y-112488094D02*
X125026247Y-112535713D01*
X125026247Y-112535713D02*
X124883390Y-112535713D01*
X124883390Y-112535713D02*
X124692914Y-112488094D01*
X124692914Y-112488094D02*
X124597676Y-112440475D01*
X124597676Y-112440475D02*
X124502438Y-112345237D01*
X124502438Y-112345237D02*
X124454819Y-112202380D01*
X124454819Y-112202380D02*
X124454819Y-112107142D01*
X124454819Y-112107142D02*
X124502438Y-111964285D01*
X124502438Y-111964285D02*
X124550057Y-111916666D01*
X124550057Y-111535713D02*
X124502438Y-111488094D01*
X124502438Y-111488094D02*
X124454819Y-111392856D01*
X124454819Y-111392856D02*
X124454819Y-111154761D01*
X124454819Y-111154761D02*
X124502438Y-111059523D01*
X124502438Y-111059523D02*
X124550057Y-111011904D01*
X124550057Y-111011904D02*
X124645295Y-110964285D01*
X124645295Y-110964285D02*
X124740533Y-110964285D01*
X124740533Y-110964285D02*
X124883390Y-111011904D01*
X124883390Y-111011904D02*
X125454819Y-111583332D01*
X125454819Y-111583332D02*
X125454819Y-110964285D01*
X124329819Y-101711904D02*
X125139342Y-101711904D01*
X125139342Y-101711904D02*
X125234580Y-101664285D01*
X125234580Y-101664285D02*
X125282200Y-101616666D01*
X125282200Y-101616666D02*
X125329819Y-101521428D01*
X125329819Y-101521428D02*
X125329819Y-101330952D01*
X125329819Y-101330952D02*
X125282200Y-101235714D01*
X125282200Y-101235714D02*
X125234580Y-101188095D01*
X125234580Y-101188095D02*
X125139342Y-101140476D01*
X125139342Y-101140476D02*
X124329819Y-101140476D01*
X124425057Y-100711904D02*
X124377438Y-100664285D01*
X124377438Y-100664285D02*
X124329819Y-100569047D01*
X124329819Y-100569047D02*
X124329819Y-100330952D01*
X124329819Y-100330952D02*
X124377438Y-100235714D01*
X124377438Y-100235714D02*
X124425057Y-100188095D01*
X124425057Y-100188095D02*
X124520295Y-100140476D01*
X124520295Y-100140476D02*
X124615533Y-100140476D01*
X124615533Y-100140476D02*
X124758390Y-100188095D01*
X124758390Y-100188095D02*
X125329819Y-100759523D01*
X125329819Y-100759523D02*
X125329819Y-100140476D01*
X141761905Y-116454819D02*
X141761905Y-115454819D01*
X141761905Y-115454819D02*
X142000000Y-115454819D01*
X142000000Y-115454819D02*
X142142857Y-115502438D01*
X142142857Y-115502438D02*
X142238095Y-115597676D01*
X142238095Y-115597676D02*
X142285714Y-115692914D01*
X142285714Y-115692914D02*
X142333333Y-115883390D01*
X142333333Y-115883390D02*
X142333333Y-116026247D01*
X142333333Y-116026247D02*
X142285714Y-116216723D01*
X142285714Y-116216723D02*
X142238095Y-116311961D01*
X142238095Y-116311961D02*
X142142857Y-116407200D01*
X142142857Y-116407200D02*
X142000000Y-116454819D01*
X142000000Y-116454819D02*
X141761905Y-116454819D01*
X143285714Y-116454819D02*
X142714286Y-116454819D01*
X143000000Y-116454819D02*
X143000000Y-115454819D01*
X143000000Y-115454819D02*
X142904762Y-115597676D01*
X142904762Y-115597676D02*
X142809524Y-115692914D01*
X142809524Y-115692914D02*
X142714286Y-115740533D01*
X146271428Y-113737704D02*
X146728571Y-113737704D01*
X146499999Y-113737704D02*
X146499999Y-114537704D01*
X146499999Y-114537704D02*
X146576190Y-114423419D01*
X146576190Y-114423419D02*
X146652380Y-114347228D01*
X146652380Y-114347228D02*
X146728571Y-114309133D01*
X132954819Y-111891666D02*
X132478628Y-112224999D01*
X132954819Y-112463094D02*
X131954819Y-112463094D01*
X131954819Y-112463094D02*
X131954819Y-112082142D01*
X131954819Y-112082142D02*
X132002438Y-111986904D01*
X132002438Y-111986904D02*
X132050057Y-111939285D01*
X132050057Y-111939285D02*
X132145295Y-111891666D01*
X132145295Y-111891666D02*
X132288152Y-111891666D01*
X132288152Y-111891666D02*
X132383390Y-111939285D01*
X132383390Y-111939285D02*
X132431009Y-111986904D01*
X132431009Y-111986904D02*
X132478628Y-112082142D01*
X132478628Y-112082142D02*
X132478628Y-112463094D01*
X132954819Y-110939285D02*
X132954819Y-111510713D01*
X132954819Y-111224999D02*
X131954819Y-111224999D01*
X131954819Y-111224999D02*
X132097676Y-111320237D01*
X132097676Y-111320237D02*
X132192914Y-111415475D01*
X132192914Y-111415475D02*
X132240533Y-111510713D01*
X151738095Y-92004819D02*
X151738095Y-92814342D01*
X151738095Y-92814342D02*
X151785714Y-92909580D01*
X151785714Y-92909580D02*
X151833333Y-92957200D01*
X151833333Y-92957200D02*
X151928571Y-93004819D01*
X151928571Y-93004819D02*
X152119047Y-93004819D01*
X152119047Y-93004819D02*
X152214285Y-92957200D01*
X152214285Y-92957200D02*
X152261904Y-92909580D01*
X152261904Y-92909580D02*
X152309523Y-92814342D01*
X152309523Y-92814342D02*
X152309523Y-92004819D01*
X152690476Y-92004819D02*
X153309523Y-92004819D01*
X153309523Y-92004819D02*
X152976190Y-92385771D01*
X152976190Y-92385771D02*
X153119047Y-92385771D01*
X153119047Y-92385771D02*
X153214285Y-92433390D01*
X153214285Y-92433390D02*
X153261904Y-92481009D01*
X153261904Y-92481009D02*
X153309523Y-92576247D01*
X153309523Y-92576247D02*
X153309523Y-92814342D01*
X153309523Y-92814342D02*
X153261904Y-92909580D01*
X153261904Y-92909580D02*
X153214285Y-92957200D01*
X153214285Y-92957200D02*
X153119047Y-93004819D01*
X153119047Y-93004819D02*
X152833333Y-93004819D01*
X152833333Y-93004819D02*
X152738095Y-92957200D01*
X152738095Y-92957200D02*
X152690476Y-92909580D01*
X135513095Y-109079819D02*
X135513095Y-109889342D01*
X135513095Y-109889342D02*
X135560714Y-109984580D01*
X135560714Y-109984580D02*
X135608333Y-110032200D01*
X135608333Y-110032200D02*
X135703571Y-110079819D01*
X135703571Y-110079819D02*
X135894047Y-110079819D01*
X135894047Y-110079819D02*
X135989285Y-110032200D01*
X135989285Y-110032200D02*
X136036904Y-109984580D01*
X136036904Y-109984580D02*
X136084523Y-109889342D01*
X136084523Y-109889342D02*
X136084523Y-109079819D01*
X137084523Y-110079819D02*
X136513095Y-110079819D01*
X136798809Y-110079819D02*
X136798809Y-109079819D01*
X136798809Y-109079819D02*
X136703571Y-109222676D01*
X136703571Y-109222676D02*
X136608333Y-109317914D01*
X136608333Y-109317914D02*
X136513095Y-109365533D01*
%TO.C,U2*%
D11*
X126565000Y-103100000D02*
X126340000Y-103100000D01*
X130400000Y-103100000D02*
X129875000Y-103100000D01*
X130400000Y-103100000D02*
X130400000Y-102575000D01*
X126100000Y-102575000D02*
X126100000Y-102800000D01*
X126100000Y-98800000D02*
X126100000Y-99325000D01*
X126100000Y-98800000D02*
X126625000Y-98800000D01*
X130400000Y-98800000D02*
X130400000Y-99325000D01*
X130400000Y-98800000D02*
X129875000Y-98800000D01*
X126100000Y-103100000D02*
X125770000Y-103340000D01*
X125770000Y-102860000D01*
X126100000Y-103100000D01*
G36*
X126100000Y-103100000D02*
G01*
X125770000Y-103340000D01*
X125770000Y-102860000D01*
X126100000Y-103100000D01*
G37*
%TO.C,D1*%
X139000000Y-110200000D02*
X139000000Y-115250000D01*
X139450000Y-109750000D02*
X139000000Y-110200000D01*
X139800000Y-111600000D02*
X139800000Y-113400000D01*
X145200000Y-111600000D02*
X145200000Y-113400000D01*
X146000000Y-109750000D02*
X139450000Y-109750000D01*
X146000000Y-115250000D02*
X139000000Y-115250000D01*
X146000000Y-115250000D02*
X146000000Y-109750000D01*
%TO.C,U3*%
X151500000Y-93360000D02*
X151360000Y-93170000D01*
X151640000Y-93170000D01*
X151500000Y-93360000D01*
G36*
X151500000Y-93360000D02*
G01*
X151360000Y-93170000D01*
X151640000Y-93170000D01*
X151500000Y-93360000D01*
G37*
X153610000Y-95635000D02*
X151390000Y-95635000D01*
X151794432Y-93365000D02*
X153610000Y-93365000D01*
%TO.C,U1*%
X134150000Y-87175000D02*
X134150000Y-89625000D01*
X134150000Y-87175000D02*
X136600000Y-87175000D01*
X134425000Y-87425000D02*
X150025000Y-87425000D01*
X134425000Y-108125000D02*
X134425000Y-87425000D01*
X150025000Y-87425000D02*
X150025000Y-108125000D01*
X150025000Y-108125000D02*
X134425000Y-108125000D01*
X134250000Y-94375000D02*
X133914000Y-94615000D01*
X133914000Y-94135000D01*
X134250000Y-94375000D01*
G36*
X134250000Y-94375000D02*
G01*
X133914000Y-94615000D01*
X133914000Y-94135000D01*
X134250000Y-94375000D01*
G37*
%TD*%
M02*
