%TF.GenerationSoftware,KiCad,Pcbnew,10.0.1*%
%TF.CreationDate,2026-05-08T11:42:37+10:00*%
%TF.ProjectId,Studytotem,53747564-7974-46f7-9465-6d2e6b696361,rev?*%
%TF.SameCoordinates,Original*%
%TF.FileFunction,Copper,L1,Top*%
%TF.FilePolarity,Positive*%
%FSLAX46Y46*%
G04 Gerber Fmt 4.6, Leading zero omitted, Abs format (unit mm)*
G04 Created by KiCad (PCBNEW 10.0.1) date 2026-05-08 11:42:37*
%MOMM*%
%LPD*%
G01*
G04 APERTURE LIST*
G04 Aperture macros list*
%AMRoundRect*
0 Rectangle with rounded corners*
0 $1 Rounding radius*
0 $2 $3 $4 $5 $6 $7 $8 $9 X,Y pos of 4 corners*
0 Add a 4 corners polygon primitive as box body*
4,1,4,$2,$3,$4,$5,$6,$7,$8,$9,$2,$3,0*
0 Add four circle primitives for the rounded corners*
1,1,$1+$1,$2,$3*
1,1,$1+$1,$4,$5*
1,1,$1+$1,$6,$7*
1,1,$1+$1,$8,$9*
0 Add four rect primitives between the rounded corners*
20,1,$1+$1,$2,$3,$4,$5,0*
20,1,$1+$1,$4,$5,$6,$7,0*
20,1,$1+$1,$6,$7,$8,$9,0*
20,1,$1+$1,$8,$9,$2,$3,0*%
%AMOutline5P*
0 Free polygon, 5 corners , with rotation*
0 The origin of the aperture is its center*
0 number of corners: always 5*
0 $1 to $10 corner X, Y*
0 $11 Rotation angle, in degrees counterclockwise*
0 create outline with 5 corners*
4,1,5,$1,$2,$3,$4,$5,$6,$7,$8,$9,$10,$1,$2,$11*%
%AMOutline6P*
0 Free polygon, 6 corners , with rotation*
0 The origin of the aperture is its center*
0 number of corners: always 6*
0 $1 to $12 corner X, Y*
0 $13 Rotation angle, in degrees counterclockwise*
0 create outline with 6 corners*
4,1,6,$1,$2,$3,$4,$5,$6,$7,$8,$9,$10,$11,$12,$1,$2,$13*%
%AMOutline7P*
0 Free polygon, 7 corners , with rotation*
0 The origin of the aperture is its center*
0 number of corners: always 7*
0 $1 to $14 corner X, Y*
0 $15 Rotation angle, in degrees counterclockwise*
0 create outline with 7 corners*
4,1,7,$1,$2,$3,$4,$5,$6,$7,$8,$9,$10,$11,$12,$13,$14,$1,$2,$15*%
%AMOutline8P*
0 Free polygon, 8 corners , with rotation*
0 The origin of the aperture is its center*
0 number of corners: always 8*
0 $1 to $16 corner X, Y*
0 $17 Rotation angle, in degrees counterclockwise*
0 create outline with 8 corners*
4,1,8,$1,$2,$3,$4,$5,$6,$7,$8,$9,$10,$11,$12,$13,$14,$15,$16,$1,$2,$17*%
G04 Aperture macros list end*
%TA.AperFunction,SMDPad,CuDef*%
%ADD10RoundRect,0.075000X-0.075000X0.125000X-0.075000X-0.125000X0.075000X-0.125000X0.075000X0.125000X0*%
%TD*%
%TA.AperFunction,SMDPad,CuDef*%
%ADD11RoundRect,0.075000X0.075000X-0.125000X0.075000X0.125000X-0.075000X0.125000X-0.075000X-0.125000X0*%
%TD*%
%TA.AperFunction,SMDPad,CuDef*%
%ADD12RoundRect,0.075000X0.075000X-0.350000X0.075000X0.350000X-0.075000X0.350000X-0.075000X-0.350000X0*%
%TD*%
%TA.AperFunction,SMDPad,CuDef*%
%ADD13RoundRect,0.075000X0.350000X0.075000X-0.350000X0.075000X-0.350000X-0.075000X0.350000X-0.075000X0*%
%TD*%
%TA.AperFunction,SMDPad,CuDef*%
%ADD14RoundRect,0.090000X0.660000X0.360000X-0.660000X0.360000X-0.660000X-0.360000X0.660000X-0.360000X0*%
%TD*%
%TA.AperFunction,HeatsinkPad*%
%ADD15R,0.900000X1.500000*%
%TD*%
%TA.AperFunction,SMDPad,CuDef*%
%ADD16RoundRect,0.062500X-0.287500X-0.062500X0.287500X-0.062500X0.287500X0.062500X-0.287500X0.062500X0*%
%TD*%
%TA.AperFunction,SMDPad,CuDef*%
%ADD17R,0.800000X0.400000*%
%TD*%
%TA.AperFunction,SMDPad,CuDef*%
%ADD18R,0.400000X0.800000*%
%TD*%
%TA.AperFunction,HeatsinkPad*%
%ADD19Outline5P,-0.600000X0.204000X-0.204000X0.600000X0.600000X0.600000X0.600000X-0.600000X-0.600000X-0.600000X0.000000*%
%TD*%
%TA.AperFunction,HeatsinkPad*%
%ADD20R,1.200000X1.200000*%
%TD*%
%TA.AperFunction,SMDPad,CuDef*%
%ADD21R,0.800000X0.800000*%
%TD*%
%TA.AperFunction,ViaPad*%
%ADD22C,0.600000*%
%TD*%
%TA.AperFunction,Conductor*%
%ADD23C,0.200000*%
%TD*%
G04 APERTURE END LIST*
D10*
%TO.P,C1,2*%
%TO.N,GND*%
X131500000Y-94475000D03*
%TO.P,C1,1*%
%TO.N,Net-(U2-REGOUT)*%
X131500000Y-93975000D03*
%TD*%
D11*
%TO.P,C2,2*%
%TO.N,GND*%
X126000000Y-111500000D03*
%TO.P,C2,1*%
%TO.N,Net-(U2-CPOUT)*%
X126000000Y-112000000D03*
%TD*%
D12*
%TO.P,U2,1,CLKIN_1*%
%TO.N,GND*%
X127000000Y-102900000D03*
%TO.P,U2,2,NC_2*%
%TO.N,unconnected-(U2-NC-Pad2)*%
X127500000Y-102900000D03*
%TO.P,U2,3,NC_3*%
%TO.N,unconnected-(U2-NC-Pad3)*%
X128000000Y-102900000D03*
%TO.P,U2,4,NC_4*%
%TO.N,unconnected-(U2-NC-Pad4)*%
X128500000Y-102900000D03*
%TO.P,U2,5,NC_5*%
%TO.N,unconnected-(U2-NC-Pad5)*%
X129000000Y-102900000D03*
%TO.P,U2,6,AUX_DA_6*%
%TO.N,unconnected-(U2-AUX_DA-Pad6)*%
X129500000Y-102900000D03*
D13*
%TO.P,U2,7,AUX_CL_7*%
%TO.N,unconnected-(U2-AUX_CL-Pad7)*%
X130200000Y-102200000D03*
%TO.P,U2,8,VLOGIC_8*%
%TO.N,+3V3*%
X130200000Y-101700000D03*
%TO.P,U2,9,AD0_9*%
%TO.N,GND*%
X130200000Y-101200000D03*
%TO.P,U2,10,REGOUT_10*%
%TO.N,Net-(U2-REGOUT)*%
X130200000Y-100700000D03*
%TO.P,U2,11,FSYNC_11*%
%TO.N,GND*%
X130200000Y-100200000D03*
%TO.P,U2,12,INT_12*%
%TO.N,unconnected-(U2-INT-Pad12)*%
X130200000Y-99700000D03*
D12*
%TO.P,U2,13,VDD_13*%
%TO.N,+3V3*%
X129500000Y-99000000D03*
%TO.P,U2,14,NC_14*%
%TO.N,unconnected-(U2-NC-Pad14)*%
X129000000Y-99000000D03*
%TO.P,U2,15,NC_15*%
%TO.N,unconnected-(U2-NC-Pad15)*%
X128500000Y-99000000D03*
%TO.P,U2,16,NC_16*%
%TO.N,unconnected-(U2-NC-Pad16)*%
X128000000Y-99000000D03*
%TO.P,U2,17,NC_17*%
%TO.N,unconnected-(U2-NC-Pad17)*%
X127500000Y-99000000D03*
%TO.P,U2,18,GND_18*%
%TO.N,GND*%
X127000000Y-99000000D03*
D13*
%TO.P,U2,19,RESV_19*%
%TO.N,unconnected-(U2-RESV-Pad19)*%
X126300000Y-99700000D03*
%TO.P,U2,20,CPOUT_20*%
%TO.N,Net-(U2-CPOUT)*%
X126300000Y-100200000D03*
%TO.P,U2,21,RESV_21*%
%TO.N,unconnected-(U2-RESV-Pad21)*%
X126300000Y-100700000D03*
%TO.P,U2,22,RESV_22*%
%TO.N,unconnected-(U2-RESV-Pad22)*%
X126300000Y-101200000D03*
%TO.P,U2,23,SCL_23*%
%TO.N,/SCL*%
X126300000Y-101700000D03*
%TO.P,U2,24,SDA_24*%
%TO.N,/SDA*%
X126300000Y-102200000D03*
%TD*%
D14*
%TO.P,D1,4,DIN_4*%
%TO.N,Net-(D1-DIN)*%
X140050000Y-114150000D03*
%TO.P,D1,3,VSS_3*%
%TO.N,GND*%
X140050000Y-110850000D03*
%TO.P,D1,2,DOUT_2*%
%TO.N,unconnected-(D1-DOUT-Pad2)*%
X144950000Y-110850000D03*
%TO.P,D1,1,VDD_1*%
%TO.N,+5V*%
X144950000Y-114150000D03*
%TD*%
D10*
%TO.P,R1,2*%
%TO.N,Net-(D1-DIN)*%
X131500000Y-111975000D03*
%TO.P,R1,1*%
%TO.N,/LED_DATA*%
X131500000Y-111475000D03*
%TD*%
D15*
%TO.P,U3,9,VSS_9*%
%TO.N,GND*%
X152500000Y-94500000D03*
D16*
%TO.P,U3,8,SNS_8*%
%TO.N,Net-(U3-SNS)*%
X153500000Y-93750000D03*
%TO.P,U3,7,VDD_7*%
%TO.N,+3V3*%
X153500000Y-94250000D03*
%TO.P,U3,6,SYNC_6*%
%TO.N,GND*%
X153500000Y-94750000D03*
%TO.P,U3,5,OUT_5*%
%TO.N,/TOUCH_OUT*%
X153500000Y-95250000D03*
%TO.P,U3,4,VSS_4*%
%TO.N,GND*%
X151500000Y-95250000D03*
%TO.P,U3,3,NC_3*%
%TO.N,unconnected-(U3-NC-Pad3)*%
X151500000Y-94750000D03*
%TO.P,U3,2,NC_2*%
%TO.N,unconnected-(U3-NC-Pad2)*%
X151500000Y-94250000D03*
%TO.P,U3,1,SNSK_1*%
%TO.N,Net-(U3-SNS)*%
X151500000Y-93750000D03*
%TD*%
D17*
%TO.P,U1,1,GND_1*%
%TO.N,GND*%
X135225000Y-94375000D03*
%TO.P,U1,2,GND_2*%
X135225000Y-95225000D03*
%TO.P,U1,3,3V3_3*%
%TO.N,+3V3*%
X135225000Y-96075000D03*
%TO.P,U1,4,IO0_4*%
%TO.N,unconnected-(U1-IO0-Pad4)*%
X135225000Y-96925000D03*
%TO.P,U1,5,IO1_5*%
%TO.N,unconnected-(U1-IO1-Pad5)*%
X135225000Y-97775000D03*
%TO.P,U1,6,IO2_6*%
%TO.N,unconnected-(U1-IO2-Pad6)*%
X135225000Y-98625000D03*
%TO.P,U1,7,IO3_7*%
%TO.N,unconnected-(U1-IO3-Pad7)*%
X135225000Y-99475000D03*
%TO.P,U1,8,IO4_8*%
%TO.N,/TOUCH_OUT*%
X135225000Y-100325000D03*
%TO.P,U1,9,IO5_9*%
%TO.N,unconnected-(U1-IO5-Pad9)*%
X135225000Y-101175000D03*
%TO.P,U1,10,IO6_10*%
%TO.N,/LED_DATA*%
X135225000Y-102025000D03*
%TO.P,U1,11,IO7_11*%
%TO.N,unconnected-(U1-IO7-Pad11)*%
X135225000Y-102875000D03*
%TO.P,U1,12,IO8_12*%
%TO.N,/SCL*%
X135225000Y-103725000D03*
%TO.P,U1,13,IO9_13*%
%TO.N,/SDA*%
X135225000Y-104575000D03*
%TO.P,U1,14,IO10_14*%
%TO.N,unconnected-(U1-IO10-Pad14)*%
X135225000Y-105425000D03*
%TO.P,U1,15,IO11_15*%
%TO.N,unconnected-(U1-IO11-Pad15)*%
X135225000Y-106275000D03*
D18*
%TO.P,U1,16,IO12_16*%
%TO.N,unconnected-(U1-IO12-Pad16)*%
X136275000Y-107325000D03*
%TO.P,U1,17,IO13_17*%
%TO.N,unconnected-(U1-IO13-Pad17)*%
X137125000Y-107325000D03*
%TO.P,U1,18,IO14_18*%
%TO.N,unconnected-(U1-IO14-Pad18)*%
X137975000Y-107325000D03*
%TO.P,U1,19,IO15_19*%
%TO.N,unconnected-(U1-IO15-Pad19)*%
X138825000Y-107325000D03*
%TO.P,U1,20,IO16_20*%
%TO.N,unconnected-(U1-IO16-Pad20)*%
X139675000Y-107325000D03*
%TO.P,U1,21,IO17_21*%
%TO.N,unconnected-(U1-IO17-Pad21)*%
X140525000Y-107325000D03*
%TO.P,U1,22,IO18_22*%
%TO.N,unconnected-(U1-IO18-Pad22)*%
X141375000Y-107325000D03*
%TO.P,U1,23,USB_D-_23*%
%TO.N,unconnected-(U1-USB_D--Pad23)*%
X142225000Y-107325000D03*
%TO.P,U1,24,USB_D+_24*%
%TO.N,unconnected-(U1-USB_D+-Pad24)*%
X143075000Y-107325000D03*
%TO.P,U1,25,IO21_25*%
%TO.N,unconnected-(U1-IO21-Pad25)*%
X143925000Y-107325000D03*
%TO.P,U1,26,IO26_26*%
%TO.N,unconnected-(U1-IO26-Pad26)*%
X144775000Y-107325000D03*
%TO.P,U1,27,IO47_27*%
%TO.N,unconnected-(U1-IO47-Pad27)*%
X145625000Y-107325000D03*
%TO.P,U1,28,IO33_28*%
%TO.N,unconnected-(U1-IO33-Pad28)*%
X146475000Y-107325000D03*
%TO.P,U1,29,IO34_29*%
%TO.N,unconnected-(U1-IO34-Pad29)*%
X147325000Y-107325000D03*
%TO.P,U1,30,IO48_30*%
%TO.N,unconnected-(U1-IO48-Pad30)*%
X148175000Y-107325000D03*
D17*
%TO.P,U1,31,IO35_31*%
%TO.N,unconnected-(U1-IO35-Pad31)*%
X149225000Y-106275000D03*
%TO.P,U1,32,IO36_32*%
%TO.N,unconnected-(U1-IO36-Pad32)*%
X149225000Y-105425000D03*
%TO.P,U1,33,IO37_33*%
%TO.N,unconnected-(U1-IO37-Pad33)*%
X149225000Y-104575000D03*
%TO.P,U1,34,IO38_34*%
%TO.N,unconnected-(U1-IO38-Pad34)*%
X149225000Y-103725000D03*
%TO.P,U1,35,IO39_35*%
%TO.N,unconnected-(U1-IO39-Pad35)*%
X149225000Y-102875000D03*
%TO.P,U1,36,IO40_36*%
%TO.N,unconnected-(U1-IO40-Pad36)*%
X149225000Y-102025000D03*
%TO.P,U1,37,IO41_37*%
%TO.N,unconnected-(U1-IO41-Pad37)*%
X149225000Y-101175000D03*
%TO.P,U1,38,IO42_38*%
%TO.N,unconnected-(U1-IO42-Pad38)*%
X149225000Y-100325000D03*
%TO.P,U1,39,TXD0_39*%
%TO.N,unconnected-(U1-TXD0-Pad39)*%
X149225000Y-99475000D03*
%TO.P,U1,40,RXD0_40*%
%TO.N,unconnected-(U1-RXD0-Pad40)*%
X149225000Y-98625000D03*
%TO.P,U1,41,IO45_41*%
%TO.N,unconnected-(U1-IO45-Pad41)*%
X149225000Y-97775000D03*
%TO.P,U1,42,GND_42*%
%TO.N,GND*%
X149225000Y-96925000D03*
%TO.P,U1,43,GND_43*%
X149225000Y-96075000D03*
%TO.P,U1,44,IO46_44*%
%TO.N,unconnected-(U1-IO46-Pad44)*%
X149225000Y-95225000D03*
%TO.P,U1,45,EN_45*%
%TO.N,unconnected-(U1-EN-Pad45)*%
X149225000Y-94375000D03*
D18*
%TO.P,U1,46,GND_46*%
%TO.N,GND*%
X148175000Y-93325000D03*
%TO.P,U1,47,GND_47*%
X147325000Y-93325000D03*
%TO.P,U1,48,GND_48*%
X146475000Y-93325000D03*
%TO.P,U1,49,GND_49*%
X145625000Y-93325000D03*
%TO.P,U1,50,GND_50*%
X144775000Y-93325000D03*
%TO.P,U1,51,GND_51*%
X143925000Y-93325000D03*
%TO.P,U1,52,GND_52*%
X143075000Y-93325000D03*
%TO.P,U1,53,GND_53*%
X142225000Y-93325000D03*
%TO.P,U1,54,GND_54*%
X141375000Y-93325000D03*
%TO.P,U1,55,GND_55*%
X140525000Y-93325000D03*
%TO.P,U1,56,GND_56*%
X139675000Y-93325000D03*
%TO.P,U1,57,GND_57*%
X138825000Y-93325000D03*
%TO.P,U1,58,GND_58*%
X137975000Y-93325000D03*
%TO.P,U1,59,GND_59*%
X137125000Y-93325000D03*
%TO.P,U1,60,GND_60*%
X136275000Y-93325000D03*
D19*
%TO.P,U1,61,GND_61*%
X140575000Y-98675000D03*
D20*
X140575000Y-100325000D03*
X140575000Y-101975000D03*
X142225000Y-98675000D03*
X142225000Y-100325000D03*
X142225000Y-101975000D03*
X143875000Y-98675000D03*
X143875000Y-100325000D03*
X143875000Y-101975000D03*
D21*
%TO.P,U1,62,GND_62*%
X135225000Y-93325000D03*
%TO.P,U1,63,GND_63*%
X135225000Y-107325000D03*
%TO.P,U1,64,GND_64*%
X149225000Y-107325000D03*
%TO.P,U1,65,GND_65*%
X149225000Y-93325000D03*
%TD*%
D22*
%TO.N,GND*%
X131300769Y-100100000D03*
X126174265Y-103174265D03*
X124500000Y-102500000D03*
X124500000Y-105100000D03*
%TO.N,Net-(U2-REGOUT)*%
X133000000Y-99500000D03*
%TO.N,Net-(U2-CPOUT)*%
X124500000Y-100500000D03*
X123500000Y-103000000D03*
%TO.N,/SCL*%
X122500000Y-101500000D03*
X126400000Y-103975000D03*
%TO.N,Net-(U2-REGOUT)*%
X133500000Y-93875000D03*
%TO.N,GND*%
X126500000Y-106500000D03*
%TO.N,/TOUCH_OUT*%
X133500000Y-101500000D03*
X138500000Y-108500000D03*
%TO.N,+3V3*%
X156000000Y-95500000D03*
X140000000Y-96000000D03*
%TO.N,/LED_DATA*%
X132500000Y-105500000D03*
X133000000Y-102500000D03*
%TO.N,GND*%
X131500000Y-101500000D03*
%TO.N,+3V3*%
X132500000Y-96500000D03*
X130900000Y-97000000D03*
%TD*%
%TO.N,GND*%
D23*
X131200769Y-100200000D02*
X131300769Y-100100000D01*
X130200000Y-100200000D02*
X131200769Y-100200000D01*
X126174265Y-103174265D02*
X126725735Y-103174265D01*
X126725735Y-103174265D02*
X127000000Y-102900000D01*
X124500000Y-105100000D02*
X124500000Y-102500000D01*
X127000000Y-102975000D02*
X127000000Y-102900000D01*
%TO.N,+3V3*%
X130200000Y-101700000D02*
X130700000Y-101700000D01*
X133600000Y-100248529D02*
X133600000Y-97600000D01*
X130700000Y-101700000D02*
X131100000Y-102100000D01*
X131100000Y-102100000D02*
X131748529Y-102100000D01*
X131748529Y-102100000D02*
X133600000Y-100248529D01*
X133600000Y-97600000D02*
X132500000Y-96500000D01*
%TO.N,Net-(U2-REGOUT)*%
X131800000Y-100700000D02*
X133000000Y-99500000D01*
X130200000Y-100700000D02*
X131800000Y-100700000D01*
%TO.N,Net-(U2-CPOUT)*%
X124500000Y-100500000D02*
X124800000Y-100200000D01*
X124800000Y-100200000D02*
X126300000Y-100200000D01*
X125500000Y-112000000D02*
X123500000Y-110000000D01*
X123500000Y-110000000D02*
X123500000Y-103000000D01*
X126000000Y-112000000D02*
X125500000Y-112000000D01*
%TO.N,/SDA*%
X125000000Y-103500000D02*
X126300000Y-102200000D01*
%TO.N,/SCL*%
X122500000Y-101500000D02*
X122700000Y-101700000D01*
X135225000Y-103725000D02*
X126650000Y-103725000D01*
X126650000Y-103725000D02*
X126400000Y-103975000D01*
X122700000Y-101700000D02*
X126300000Y-101700000D01*
%TO.N,/SDA*%
X126449999Y-102349999D02*
X126449999Y-102410354D01*
X126300000Y-102200000D02*
X126449999Y-102349999D01*
%TO.N,Net-(U3-SNS)*%
X153500000Y-93750000D02*
X153200000Y-93450000D01*
X153200000Y-93450000D02*
X151800000Y-93450000D01*
X151800000Y-93450000D02*
X151500000Y-93750000D01*
%TO.N,GND*%
X140575000Y-98675000D02*
X140575000Y-100325000D01*
%TO.N,Net-(U2-REGOUT)*%
X132525000Y-93975000D02*
X133000000Y-93500000D01*
X133000000Y-93500000D02*
X133375000Y-93875000D01*
X133375000Y-93875000D02*
X133500000Y-93875000D01*
X131500000Y-93975000D02*
X132525000Y-93975000D01*
%TO.N,GND*%
X140575000Y-101975000D02*
X140575000Y-100325000D01*
X126000000Y-107000000D02*
X126500000Y-106500000D01*
X126000000Y-111500000D02*
X126000000Y-107000000D01*
%TO.N,/SDA*%
X126075000Y-104575000D02*
X125000000Y-103500000D01*
X135225000Y-104575000D02*
X126075000Y-104575000D01*
%TO.N,/LED_DATA*%
X133000000Y-102500000D02*
X134550000Y-102500000D01*
X134550000Y-102500000D02*
X135025000Y-102025000D01*
X135025000Y-102025000D02*
X135225000Y-102025000D01*
%TO.N,/TOUCH_OUT*%
X133500000Y-101500000D02*
X134675000Y-100325000D01*
X134675000Y-100325000D02*
X135225000Y-100325000D01*
X149450000Y-108500000D02*
X138500000Y-108500000D01*
X153500000Y-104450000D02*
X149450000Y-108500000D01*
X153500000Y-95250000D02*
X153500000Y-104450000D01*
%TO.N,GND*%
X140050000Y-110850000D02*
X138750000Y-110850000D01*
X138750000Y-110850000D02*
X135225000Y-107325000D01*
X153500000Y-94750000D02*
X152750000Y-94750000D01*
X152750000Y-94750000D02*
X152500000Y-94500000D01*
%TO.N,+3V3*%
X156000000Y-95500000D02*
X154750000Y-94250000D01*
X154750000Y-94250000D02*
X153500000Y-94250000D01*
X135300000Y-96000000D02*
X140000000Y-96000000D01*
X135225000Y-96075000D02*
X135300000Y-96000000D01*
%TO.N,GND*%
X149225000Y-107325000D02*
X143875000Y-101975000D01*
X135225000Y-107325000D02*
X140575000Y-101975000D01*
X149925000Y-94025000D02*
X149925000Y-95000000D01*
X151500000Y-95250000D02*
X150175000Y-95250000D01*
X150175000Y-95250000D02*
X149925000Y-95000000D01*
X152500000Y-94500000D02*
X152500000Y-94614386D01*
X151864386Y-95250000D02*
X151500000Y-95250000D01*
X152500000Y-94614386D02*
X151864386Y-95250000D01*
X149225000Y-96075000D02*
X149225000Y-96925000D01*
X149225000Y-93325000D02*
X149925000Y-94025000D01*
X149925000Y-95000000D02*
X149925000Y-95575000D01*
X149925000Y-95575000D02*
X149425000Y-96075000D01*
X149425000Y-96075000D02*
X149225000Y-96075000D01*
X135225000Y-93325000D02*
X135225000Y-95225000D01*
X135225000Y-93325000D02*
X149225000Y-93325000D01*
X142225000Y-98675000D02*
X142225000Y-93325000D01*
X143875000Y-101975000D02*
X140575000Y-101975000D01*
X140575000Y-100325000D02*
X143875000Y-100325000D01*
X143875000Y-98675000D02*
X140575000Y-98675000D01*
%TO.N,/LED_DATA*%
X131500000Y-111475000D02*
X131500000Y-106500000D01*
X131500000Y-106500000D02*
X132500000Y-105500000D01*
%TO.N,Net-(D1-DIN)*%
X131500000Y-111975000D02*
X137875000Y-111975000D01*
X137875000Y-111975000D02*
X140050000Y-114150000D01*
%TO.N,GND*%
X131500000Y-101500000D02*
X131200000Y-101200000D01*
X131200000Y-101200000D02*
X130200000Y-101200000D01*
%TO.N,+3V3*%
X132500000Y-96500000D02*
X132925000Y-96075000D01*
X132925000Y-96075000D02*
X135225000Y-96075000D01*
X129500000Y-99000000D02*
X129500000Y-98400000D01*
X129500000Y-98400000D02*
X130900000Y-97000000D01*
%TO.N,GND*%
X131500000Y-94475000D02*
X131067590Y-94475000D01*
X127000000Y-98542590D02*
X127000000Y-99000000D01*
X131067590Y-94475000D02*
X127000000Y-98542590D01*
X131500000Y-94475000D02*
X131500000Y-99357410D01*
X131500000Y-99357410D02*
X130657410Y-100200000D01*
X130657410Y-100200000D02*
X130200000Y-100200000D01*
X131500000Y-94475000D02*
X135125000Y-94475000D01*
X135125000Y-94475000D02*
X135225000Y-94375000D01*
%TD*%
M02*
